<svg id="svg" version="1.1" xmlns="http://www.w3.org/2000/svg" xmlns:xlink="http://www.w3.org/1999/xlink" width="400" height="400" viewBox="0, 0, 400,400"><g id="svgg"><path id="path0" d="M197.756 47.006 C 197.341 47.560,196.641 48.623,196.200 49.370 C 195.760 50.117,193.150 54.425,190.400 58.943 C 187.650 63.462,185.222 67.528,185.005 67.979 C 184.788 68.431,184.473 68.800,184.305 68.800 C 184.137 68.800,184.000 68.992,184.000 69.227 C 184.000 69.461,183.550 70.243,183.000 70.964 C 182.450 71.686,182.000 72.422,182.000 72.600 C 182.000 72.778,181.550 73.514,181.000 74.236 C 180.450 74.957,180.000 75.643,180.000 75.761 C 180.000 75.880,177.885 79.392,175.300 83.568 C 170.837 90.776,169.790 92.482,168.400 94.802 C 168.070 95.352,167.395 96.370,166.900 97.063 C 166.405 97.756,166.000 98.423,166.000 98.544 C 166.000 98.665,162.850 103.815,159.000 109.989 C 155.150 116.162,152.000 121.375,152.000 121.573 C 152.000 121.771,151.857 121.993,151.682 122.067 C 151.069 122.323,144.000 133.997,144.000 134.753 C 144.000 135.268,144.683 135.872,146.100 136.611 C 147.255 137.214,149.693 138.493,151.517 139.453 C 156.533 142.094,155.518 142.931,164.131 129.044 C 168.274 122.365,171.931 116.383,172.259 115.751 C 172.587 115.119,173.113 114.317,173.428 113.969 C 173.742 113.622,174.000 113.230,174.000 113.099 C 174.000 112.851,181.950 99.806,183.253 97.916 C 183.664 97.320,184.000 96.645,184.000 96.416 C 184.000 96.187,184.159 96.000,184.353 96.000 C 184.548 96.000,184.815 95.685,184.948 95.300 C 185.080 94.915,185.570 93.970,186.036 93.200 C 188.694 88.810,194.621 79.242,195.256 78.316 C 195.665 77.720,196.000 77.120,196.000 76.982 C 196.000 76.496,198.509 73.244,199.040 73.040 C 199.575 72.835,202.000 74.589,202.000 75.180 C 202.000 75.350,202.900 76.854,204.000 78.523 C 205.100 80.191,206.000 81.653,206.000 81.771 C 206.000 81.889,208.250 85.600,211.000 90.016 C 213.750 94.432,216.000 98.153,216.000 98.285 C 216.000 98.417,216.450 99.114,217.000 99.836 C 217.550 100.557,218.000 101.277,218.000 101.436 C 218.000 101.594,218.450 102.314,219.000 103.036 C 219.550 103.757,220.000 104.446,220.000 104.567 C 220.000 104.688,221.800 107.682,224.000 111.220 C 226.200 114.758,228.000 117.731,228.000 117.827 C 228.000 118.649,242.611 141.200,243.144 141.200 C 243.729 141.200,254.800 134.207,254.800 133.837 C 254.800 133.547,253.736 131.743,251.887 128.896 C 250.849 127.299,250.000 125.912,250.000 125.814 C 250.000 125.635,248.288 122.951,247.696 122.200 C 247.103 121.450,244.000 116.420,244.000 116.211 C 244.000 116.096,243.390 115.146,242.645 114.101 C 241.900 113.055,240.955 111.569,240.545 110.798 C 240.135 110.027,239.395 108.830,238.900 108.137 C 238.405 107.444,238.000 106.741,238.000 106.576 C 238.000 106.411,237.550 105.686,237.000 104.964 C 236.450 104.243,236.000 103.539,236.000 103.400 C 236.000 103.261,235.550 102.557,235.000 101.836 C 234.450 101.114,234.000 100.426,234.000 100.306 C 234.000 100.185,231.300 95.734,228.000 90.413 C 224.700 85.093,222.000 80.573,222.000 80.370 C 222.000 80.166,221.861 80.000,221.691 80.000 C 221.521 80.000,221.031 79.325,220.601 78.500 C 220.172 77.675,219.438 76.460,218.970 75.800 C 218.501 75.140,218.000 74.330,217.856 74.000 C 217.560 73.324,217.606 73.400,212.055 64.494 C 209.825 60.915,208.000 57.869,208.000 57.725 C 208.000 57.581,207.748 57.179,207.440 56.831 C 207.132 56.484,206.383 55.300,205.777 54.200 C 201.463 46.378,199.530 44.644,197.756 47.006 M93.792 79.970 C 92.806 81.494,92.000 82.900,92.000 83.095 C 92.000 83.290,91.624 84.229,91.163 85.181 C 87.864 92.011,87.125 107.006,89.655 115.800 C 93.495 129.149,100.270 138.388,112.889 147.485 C 114.807 148.868,116.501 150.000,116.651 150.000 C 116.801 150.000,117.481 150.415,118.162 150.922 C 119.356 151.812,131.605 158.000,132.171 158.000 C 132.324 158.000,133.473 158.465,134.725 159.032 C 137.165 160.140,137.724 160.372,140.200 161.311 C 143.991 162.748,149.493 164.906,150.600 165.390 C 151.260 165.678,152.430 166.141,153.200 166.417 C 153.970 166.694,155.230 167.181,156.000 167.501 C 156.770 167.820,157.850 168.260,158.400 168.478 C 158.950 168.696,159.910 169.127,160.532 169.437 C 161.155 169.747,161.820 170.000,162.009 170.000 C 162.463 170.000,170.814 174.061,173.525 175.600 C 177.002 177.573,181.583 181.115,185.119 184.563 C 188.977 188.326,190.000 188.764,190.000 186.651 C 190.000 185.879,189.840 185.148,189.644 185.027 C 189.449 184.906,189.166 184.318,189.016 183.720 C 187.790 178.835,181.786 170.675,175.800 165.757 C 173.258 163.669,167.398 160.000,166.604 160.000 C 166.272 160.000,166.000 159.855,166.000 159.677 C 166.000 159.323,163.212 158.000,162.466 158.000 C 162.210 158.000,162.000 157.840,162.000 157.643 C 162.000 157.447,161.545 157.173,160.989 157.033 C 160.433 156.894,158.948 156.324,157.689 155.767 C 155.357 154.735,155.009 154.586,152.200 153.414 C 138.815 147.827,125.658 140.869,116.243 134.400 C 111.877 131.400,105.647 125.343,103.385 121.900 C 100.879 118.084,100.381 117.223,99.170 114.600 C 97.264 110.474,96.762 108.927,95.533 103.400 C 94.866 100.397,94.840 87.648,95.495 84.000 C 96.845 76.467,96.534 75.731,93.792 79.970 M302.958 79.700 C 303.101 81.075,303.409 83.460,303.641 85.000 C 304.143 88.322,303.895 101.671,303.276 104.709 C 302.621 107.920,301.902 110.062,300.160 114.000 C 299.060 116.487,296.181 121.580,295.638 122.000 C 295.496 122.110,294.755 123.010,293.991 124.000 C 290.443 128.601,285.371 132.809,275.992 138.932 C 270.493 142.522,255.477 149.838,243.000 155.005 C 237.274 157.377,228.862 161.526,228.000 162.404 C 227.890 162.516,226.990 163.128,226.000 163.765 C 218.914 168.320,212.075 177.130,209.560 184.943 C 208.560 188.049,209.673 189.297,211.483 187.100 C 217.127 180.249,226.582 174.123,239.400 169.010 C 242.098 167.934,244.114 167.116,245.800 166.412 C 246.240 166.228,247.770 165.626,249.200 165.074 C 256.215 162.365,257.875 161.710,261.000 160.414 C 261.440 160.232,262.790 159.684,264.000 159.196 C 279.374 153.003,292.626 144.148,299.418 135.530 C 301.971 132.290,303.711 129.628,305.648 126.000 C 307.003 123.464,308.192 120.162,309.609 115.000 C 311.419 108.410,311.187 95.570,309.136 88.818 C 307.672 83.999,304.142 77.200,303.104 77.200 C 302.843 77.200,302.791 78.100,302.958 79.700 M78.700 90.207 C 78.315 90.726,78.000 91.264,78.000 91.402 C 78.000 91.540,77.573 92.226,77.051 92.927 C 75.912 94.454,73.046 100.400,72.436 102.500 C 72.196 103.325,71.829 104.585,71.619 105.300 C 69.637 112.068,69.641 127.152,71.628 134.600 C 77.480 156.543,92.746 172.304,119.600 184.126 C 123.107 185.670,124.755 186.372,126.800 187.196 C 128.010 187.684,129.360 188.228,129.800 188.407 C 130.240 188.585,132.040 189.296,133.800 189.987 C 135.560 190.677,137.360 191.395,137.800 191.581 C 138.240 191.767,139.230 192.144,140.000 192.420 C 140.770 192.695,141.940 193.143,142.600 193.415 C 143.260 193.686,145.060 194.403,146.600 195.008 C 150.997 196.733,152.149 197.211,152.895 197.619 C 153.277 197.829,153.767 198.000,153.984 198.000 C 154.201 198.000,155.418 198.472,156.689 199.048 C 157.960 199.624,159.630 200.365,160.400 200.693 C 161.170 201.022,163.060 201.930,164.600 202.711 C 166.140 203.492,167.940 204.399,168.600 204.726 C 170.779 205.807,178.650 211.164,180.239 212.649 C 181.098 213.451,183.369 215.613,185.286 217.454 C 190.191 222.162,191.153 221.732,188.960 215.808 C 183.712 201.632,172.562 191.245,154.200 183.427 C 153.320 183.052,152.150 182.553,151.600 182.317 C 148.822 181.125,148.090 180.813,146.800 180.271 C 146.030 179.948,144.410 179.283,143.200 178.793 C 140.953 177.883,140.260 177.569,132.600 173.987 C 126.178 170.983,117.586 166.586,116.200 165.593 C 115.980 165.435,114.720 164.719,113.400 164.001 C 112.080 163.283,110.145 162.089,109.099 161.348 C 108.054 160.607,107.106 160.000,106.993 160.000 C 106.791 160.000,101.190 156.034,100.800 155.615 C 100.690 155.497,99.744 154.712,98.698 153.871 C 92.158 148.616,86.440 141.438,83.028 134.200 C 77.701 122.900,76.629 110.734,79.477 93.889 C 80.180 89.731,79.930 88.548,78.700 90.207 M319.350 91.300 C 319.488 92.455,319.774 94.750,319.988 96.400 C 321.607 108.919,321.413 116.898,319.286 125.200 C 318.101 129.821,315.804 135.215,313.459 138.881 C 312.657 140.135,312.000 141.350,312.000 141.581 C 312.000 141.811,311.865 142.004,311.700 142.009 C 311.535 142.014,310.770 142.907,310.000 143.993 C 308.414 146.231,301.418 153.244,299.000 155.020 C 298.120 155.667,297.310 156.305,297.200 156.438 C 297.090 156.571,296.208 157.202,295.239 157.840 C 294.271 158.478,291.931 160.031,290.039 161.291 C 288.148 162.552,286.240 163.762,285.800 163.980 C 285.360 164.199,283.740 165.101,282.200 165.985 C 277.189 168.861,263.516 175.502,256.600 178.419 C 256.160 178.604,254.990 179.108,254.000 179.537 C 253.010 179.966,251.030 180.807,249.600 181.405 C 242.147 184.522,235.777 187.654,231.600 190.254 C 220.079 197.426,210.592 209.793,209.317 219.300 C 209.206 220.125,209.237 220.800,209.384 220.800 C 210.026 220.800,211.520 219.754,213.045 218.237 C 222.894 208.437,229.274 204.398,245.000 198.011 C 247.860 196.849,250.740 195.678,251.400 195.409 C 252.060 195.140,253.230 194.692,254.000 194.413 C 255.247 193.961,256.003 193.659,259.000 192.413 C 259.440 192.230,260.430 191.856,261.200 191.580 C 261.970 191.305,263.140 190.861,263.800 190.594 C 264.846 190.171,266.324 189.590,269.400 188.393 C 269.840 188.222,270.920 187.781,271.800 187.414 C 272.680 187.046,273.760 186.602,274.200 186.426 C 276.626 185.458,283.801 182.181,285.400 181.311 C 286.060 180.953,286.870 180.539,287.200 180.392 C 289.073 179.558,293.188 177.289,293.943 176.674 C 294.555 176.175,295.211 175.776,297.446 174.543 C 298.301 174.071,299.343 173.306,299.762 172.843 C 300.181 172.379,300.683 172.000,300.878 172.000 C 302.246 172.000,313.340 161.581,316.425 157.400 C 317.399 156.080,318.292 154.910,318.410 154.800 C 319.358 153.914,322.913 147.345,324.579 143.400 C 325.783 140.547,325.903 140.222,326.346 138.600 C 326.587 137.720,326.988 136.280,327.238 135.400 C 330.163 125.117,329.080 107.620,324.954 98.489 C 324.429 97.328,324.000 96.268,324.000 96.134 C 324.000 95.757,319.579 89.200,319.325 89.200 C 319.202 89.200,319.213 90.145,319.350 91.300 M340.540 117.005 C 341.606 127.916,341.088 142.281,339.407 148.400 C 339.256 148.950,338.859 150.390,338.526 151.600 C 338.193 152.810,337.763 154.160,337.571 154.600 C 337.379 155.040,336.842 156.390,336.378 157.600 C 333.713 164.543,327.176 173.659,321.236 178.717 C 316.029 183.151,315.358 183.653,311.000 186.371 C 305.295 189.929,304.495 190.374,297.600 193.818 C 292.457 196.386,290.960 197.089,287.800 198.418 C 287.360 198.603,285.960 199.215,284.688 199.777 C 283.417 200.340,282.274 200.800,282.149 200.800 C 282.023 200.800,281.354 201.053,280.660 201.362 C 279.967 201.672,278.500 202.243,277.400 202.631 C 276.300 203.020,275.220 203.461,275.000 203.611 C 274.780 203.761,274.240 203.982,273.800 204.101 C 273.360 204.221,270.930 205.069,268.400 205.986 C 265.870 206.903,261.370 208.454,258.400 209.432 C 255.430 210.411,252.640 211.362,252.200 211.547 C 251.760 211.731,250.500 212.201,249.400 212.591 C 245.440 213.994,244.477 214.374,241.958 215.525 C 240.551 216.168,238.590 217.064,237.600 217.517 C 229.250 221.333,214.000 234.813,214.000 238.379 C 214.000 238.610,213.863 238.800,213.695 238.800 C 213.528 238.800,212.606 240.465,211.647 242.500 C 210.687 244.535,209.745 246.513,209.551 246.895 C 209.358 247.277,209.200 248.132,209.200 248.795 C 209.200 250.932,209.124 250.978,219.338 242.673 C 220.912 241.393,222.560 240.173,223.000 239.962 C 223.440 239.752,224.970 238.862,226.400 237.986 C 227.830 237.110,230.170 235.837,231.600 235.157 C 233.030 234.478,234.516 233.757,234.903 233.556 C 236.061 232.952,241.183 230.979,244.600 229.820 C 246.360 229.223,248.160 228.588,248.600 228.410 C 249.040 228.232,251.020 227.595,253.000 226.994 C 254.980 226.393,256.960 225.757,257.400 225.581 C 257.840 225.405,259.280 224.953,260.600 224.576 C 261.920 224.199,264.260 223.489,265.800 223.000 C 267.340 222.510,269.680 221.790,271.000 221.399 C 272.320 221.008,273.760 220.553,274.200 220.387 C 274.640 220.221,276.620 219.595,278.600 218.994 C 280.580 218.393,282.560 217.763,283.000 217.593 C 283.440 217.423,284.700 216.979,285.800 216.605 C 289.282 215.422,293.351 213.943,294.800 213.334 C 295.570 213.011,296.560 212.599,297.000 212.420 C 314.935 205.122,329.856 193.830,338.118 181.302 C 350.381 162.709,352.573 136.332,343.321 118.685 C 343.000 118.071,342.521 117.153,342.257 116.645 C 340.841 113.916,340.250 114.040,340.540 117.005 M57.722 115.572 C 55.216 117.907,51.392 128.351,50.368 135.658 C 49.396 142.595,50.711 157.639,52.869 164.273 C 53.169 165.194,53.546 166.079,53.707 166.240 C 53.868 166.401,54.000 166.866,54.000 167.272 C 54.000 167.678,54.163 168.323,54.361 168.705 C 54.560 169.087,55.530 171.129,56.516 173.242 C 60.998 182.845,68.299 191.645,77.400 198.415 C 78.720 199.397,79.980 200.339,80.200 200.510 C 81.761 201.717,85.304 204.000,85.618 204.000 C 85.828 204.000,86.001 204.135,86.003 204.300 C 86.005 204.465,86.410 204.801,86.903 205.048 C 87.396 205.294,90.601 206.914,94.025 208.648 C 97.448 210.381,100.958 212.046,101.825 212.346 C 102.691 212.646,103.940 213.124,104.600 213.408 C 105.260 213.692,106.700 214.241,107.800 214.628 C 108.900 215.015,109.971 215.482,110.180 215.666 C 110.389 215.850,110.938 216.000,111.400 216.000 C 111.862 216.000,112.411 216.143,112.620 216.318 C 112.829 216.493,114.080 216.964,115.400 217.364 C 116.720 217.765,118.160 218.233,118.600 218.404 C 119.777 218.862,122.545 219.752,126.500 220.945 C 135.679 223.712,137.271 224.206,141.062 225.458 C 143.296 226.196,145.339 226.800,145.602 226.800 C 145.864 226.800,146.646 227.049,147.340 227.354 C 148.033 227.658,149.680 228.221,151.000 228.605 C 152.320 228.989,153.571 229.460,153.780 229.651 C 153.989 229.843,154.563 230.000,155.056 230.000 C 155.549 230.000,156.064 230.180,156.200 230.400 C 156.336 230.620,156.724 230.800,157.063 230.800 C 157.402 230.800,158.336 231.088,159.140 231.441 C 159.943 231.793,160.960 232.227,161.400 232.405 C 168.895 235.433,179.235 241.636,182.908 245.308 C 188.719 251.118,191.301 251.239,188.900 245.588 C 183.569 233.045,173.559 223.214,159.400 216.617 C 154.824 214.486,154.318 214.266,152.400 213.580 C 151.630 213.305,150.460 212.850,149.800 212.570 C 149.140 212.289,145.000 210.870,140.600 209.416 C 133.158 206.957,128.696 205.367,122.500 202.968 C 116.042 200.468,114.454 199.829,112.489 198.948 C 111.328 198.426,110.306 198.000,110.218 198.000 C 109.977 198.000,104.151 195.297,101.200 193.816 C 96.302 191.358,89.290 187.397,88.369 186.568 C 88.021 186.256,87.618 186.000,87.473 186.000 C 87.096 186.000,80.850 181.464,79.286 180.055 C 78.563 179.403,77.209 178.180,76.276 177.335 C 70.872 172.444,66.191 165.589,62.390 157.000 C 58.618 148.476,56.986 132.766,58.380 118.400 C 58.762 114.466,58.788 114.579,57.722 115.572 M124.800 235.534 C 124.800 235.937,125.520 237.295,126.400 238.551 C 127.280 239.808,128.000 240.946,128.000 241.080 C 128.000 241.214,128.450 241.914,129.000 242.636 C 129.550 243.357,130.000 244.072,130.000 244.225 C 130.000 244.378,130.855 245.791,131.900 247.366 C 134.348 251.054,135.097 252.242,137.717 256.600 C 137.982 257.040,138.603 257.973,139.099 258.673 C 139.595 259.374,140.000 260.066,140.000 260.212 C 140.000 260.357,140.405 261.041,140.900 261.730 C 141.886 263.103,142.612 264.273,143.055 265.200 C 143.213 265.530,143.463 265.890,143.612 266.000 C 143.837 266.167,145.787 269.294,147.728 272.600 C 147.987 273.040,148.603 273.973,149.099 274.673 C 149.595 275.374,150.000 276.066,150.000 276.212 C 150.000 276.357,150.405 277.041,150.900 277.730 C 151.886 279.103,152.612 280.273,153.055 281.200 C 153.213 281.530,153.463 281.890,153.612 282.000 C 153.843 282.171,156.570 286.541,157.800 288.711 C 158.020 289.099,158.605 289.981,159.100 290.670 C 159.595 291.359,160.000 292.048,160.000 292.200 C 160.000 292.352,160.405 293.041,160.900 293.730 C 162.111 295.416,162.737 296.460,163.040 297.300 C 163.179 297.685,163.452 298.000,163.647 298.000 C 163.841 298.000,164.000 298.179,164.000 298.398 C 164.000 298.710,169.109 307.139,175.155 316.800 C 175.499 317.350,176.122 318.430,176.540 319.200 C 176.958 319.970,177.414 320.690,177.554 320.800 C 177.693 320.910,178.162 321.675,178.595 322.500 C 179.028 323.325,179.521 324.000,179.691 324.000 C 179.861 324.000,180.000 324.178,180.000 324.395 C 180.000 324.612,181.324 326.907,182.942 329.495 C 187.708 337.117,190.000 340.854,190.000 341.002 C 190.000 341.078,191.350 343.315,193.000 345.974 C 194.650 348.633,196.000 350.951,196.000 351.126 C 196.000 351.683,198.615 354.000,199.244 354.000 C 199.847 354.000,202.000 352.020,202.000 351.467 C 202.000 351.237,204.776 346.607,207.196 342.800 C 207.406 342.470,207.869 341.623,208.226 340.918 C 208.582 340.214,209.127 339.426,209.437 339.169 C 209.747 338.912,210.000 338.557,210.000 338.379 C 210.000 338.202,212.700 333.711,216.000 328.400 C 219.300 323.089,222.000 318.638,222.000 318.510 C 222.000 318.381,222.450 317.686,223.000 316.964 C 223.550 316.243,224.000 315.523,224.000 315.364 C 224.000 315.206,224.450 314.486,225.000 313.764 C 225.550 313.043,226.000 312.362,226.000 312.249 C 226.000 312.137,228.250 308.432,231.000 304.016 C 233.750 299.600,236.000 295.871,236.000 295.731 C 236.000 295.590,236.450 294.886,237.000 294.164 C 237.550 293.443,238.000 292.734,238.000 292.588 C 238.000 292.443,238.405 291.759,238.900 291.070 C 239.395 290.381,239.980 289.525,240.200 289.168 C 240.874 288.074,243.207 284.247,243.717 283.400 C 243.982 282.960,244.603 282.027,245.099 281.327 C 245.595 280.626,246.000 279.923,246.000 279.764 C 246.000 279.606,246.450 278.886,247.000 278.164 C 247.550 277.443,248.000 276.661,248.000 276.427 C 248.000 276.192,248.180 276.000,248.400 276.000 C 248.620 276.000,248.800 275.847,248.800 275.659 C 248.800 275.472,249.565 274.130,250.500 272.678 C 252.038 270.289,253.527 267.909,255.800 264.206 C 256.240 263.489,258.567 259.774,260.971 255.951 C 263.375 252.128,265.595 248.550,265.904 248.000 C 266.213 247.450,268.144 244.390,270.194 241.200 C 274.045 235.209,274.378 234.042,271.893 235.259 C 270.377 236.001,266.151 237.939,265.000 238.420 C 264.560 238.604,263.120 239.230,261.800 239.812 C 260.480 240.393,258.860 241.106,258.200 241.395 C 257.540 241.685,255.976 242.389,254.725 242.961 C 253.473 243.532,252.290 244.000,252.094 244.000 C 251.311 244.000,247.923 249.043,241.612 259.600 C 241.172 260.337,237.755 265.907,237.086 266.978 C 236.819 267.406,236.330 268.069,236.000 268.451 C 235.670 268.833,235.040 269.831,234.600 270.667 C 234.160 271.504,231.595 275.760,228.900 280.125 C 226.205 284.490,224.000 288.166,224.000 288.293 C 224.000 288.420,223.582 289.081,223.071 289.762 C 222.559 290.443,222.018 291.270,221.867 291.600 C 221.546 292.303,221.597 292.220,215.056 302.707 C 212.275 307.166,210.000 310.885,210.000 310.972 C 210.000 311.259,201.951 324.173,200.945 325.500 C 199.923 326.848,198.698 327.165,197.856 326.300 C 197.408 325.841,193.339 319.343,187.918 310.434 C 187.193 309.242,186.287 307.802,185.904 307.234 C 185.522 306.665,185.089 305.954,184.943 305.653 C 184.797 305.352,183.175 302.700,181.339 299.760 C 179.503 296.820,178.000 294.310,178.000 294.181 C 178.000 294.052,177.550 293.357,177.000 292.636 C 176.450 291.914,176.000 291.194,176.000 291.036 C 176.000 290.877,175.550 290.157,175.000 289.436 C 174.450 288.714,174.000 288.005,174.000 287.859 C 174.000 287.713,172.650 285.437,171.000 282.800 C 169.350 280.163,168.000 277.903,168.000 277.776 C 168.000 277.650,167.550 276.957,167.000 276.236 C 166.450 275.514,166.000 274.794,166.000 274.636 C 166.000 274.477,165.550 273.757,165.000 273.036 C 164.450 272.314,164.000 271.516,164.000 271.262 C 164.000 271.008,163.861 270.800,163.691 270.800 C 163.521 270.800,163.031 270.125,162.601 269.300 C 162.172 268.475,161.411 267.243,160.911 266.562 C 160.410 265.881,160.000 265.194,160.000 265.036 C 160.000 264.877,159.595 264.174,159.099 263.473 C 158.024 261.953,157.631 261.315,155.920 258.300 C 155.203 257.035,154.477 256.000,154.308 256.000 C 154.138 256.000,154.000 255.826,154.000 255.614 C 154.000 254.162,147.443 244.848,145.882 244.082 C 144.276 243.295,139.494 241.120,137.800 240.407 C 137.360 240.222,135.415 239.334,133.477 238.435 C 131.539 237.536,129.879 236.800,129.789 236.800 C 129.698 236.800,128.640 236.350,127.437 235.800 C 124.824 234.605,124.800 234.602,124.800 235.534 " stroke="none" fill="#eb5e2d" fill-rule="evenodd"></path><path id="path1" d="M186.545 23.000 C 186.357 23.489,185.395 23.600,181.357 23.600 C 178.319 23.600,176.400 23.755,176.400 24.000 C 176.400 24.235,175.000 24.400,173.000 24.400 C 170.244 24.400,169.600 24.514,169.600 25.000 C 169.600 25.472,169.044 25.600,167.000 25.600 C 165.533 25.600,164.400 25.774,164.400 26.000 C 164.400 26.222,163.333 26.400,162.000 26.400 C 160.133 26.400,159.600 26.533,159.600 27.000 C 159.600 27.453,159.111 27.600,157.600 27.600 C 156.500 27.600,155.600 27.780,155.600 28.000 C 155.600 28.220,154.700 28.400,153.600 28.400 C 152.089 28.400,151.600 28.547,151.600 29.000 C 151.600 29.433,151.156 29.600,150.000 29.600 C 149.120 29.600,148.400 29.780,148.400 30.000 C 148.400 30.220,147.770 30.400,147.000 30.400 C 146.022 30.400,145.600 30.581,145.600 31.000 C 145.600 31.433,145.156 31.600,144.000 31.600 C 143.120 31.600,142.400 31.780,142.400 32.000 C 142.400 32.220,141.770 32.400,141.000 32.400 C 140.022 32.400,139.600 32.581,139.600 33.000 C 139.600 33.433,139.156 33.600,138.000 33.600 C 137.120 33.600,136.400 33.780,136.400 34.000 C 136.400 34.220,136.034 34.400,135.587 34.400 C 135.141 34.400,134.671 34.670,134.545 35.000 C 134.403 35.370,133.795 35.600,132.957 35.600 C 132.211 35.600,131.600 35.780,131.600 36.000 C 131.600 36.220,131.150 36.400,130.600 36.400 C 129.978 36.400,129.600 36.627,129.600 37.000 C 129.600 37.433,129.156 37.600,128.000 37.600 C 127.120 37.600,126.400 37.780,126.400 38.000 C 126.400 38.220,126.034 38.400,125.587 38.400 C 125.141 38.400,124.671 38.670,124.545 39.000 C 124.418 39.330,123.884 39.600,123.357 39.600 C 122.831 39.600,122.400 39.780,122.400 40.000 C 122.400 40.220,122.034 40.400,121.587 40.400 C 121.141 40.400,120.671 40.670,120.545 41.000 C 120.418 41.330,119.884 41.600,119.357 41.600 C 118.831 41.600,118.400 41.780,118.400 42.000 C 118.400 42.220,118.034 42.400,117.587 42.400 C 117.141 42.400,116.671 42.670,116.545 43.000 C 116.418 43.330,115.961 43.600,115.529 43.600 C 114.679 43.600,113.600 44.479,113.600 45.171 C 113.600 45.407,113.150 45.600,112.600 45.600 C 112.050 45.600,111.600 45.780,111.600 46.000 C 111.600 46.220,111.150 46.400,110.600 46.400 C 109.978 46.400,109.600 46.627,109.600 47.000 C 109.600 47.346,109.238 47.600,108.746 47.600 C 108.276 47.600,107.475 48.050,106.965 48.600 C 106.455 49.150,105.747 49.600,105.391 49.600 C 104.656 49.600,103.600 50.527,103.600 51.171 C 103.600 51.407,103.216 51.600,102.746 51.600 C 102.276 51.600,101.475 52.050,100.965 52.600 C 100.455 53.150,99.747 53.600,99.391 53.600 C 98.656 53.600,97.600 54.527,97.600 55.171 C 97.600 55.407,97.216 55.600,96.747 55.600 C 96.278 55.600,95.300 56.230,94.574 57.000 C 93.848 57.770,92.882 58.400,92.427 58.400 C 91.959 58.400,91.600 58.660,91.600 59.000 C 91.600 59.330,91.407 59.600,91.171 59.600 C 90.618 59.600,89.600 60.618,89.600 61.171 C 89.600 61.407,89.221 61.600,88.758 61.600 C 88.257 61.600,86.966 62.571,85.568 64.000 C 84.228 65.370,82.872 66.400,82.410 66.400 C 81.957 66.400,81.600 66.664,81.600 67.000 C 81.600 67.330,81.407 67.600,81.171 67.600 C 80.618 67.600,79.600 68.618,79.600 69.171 C 79.600 69.407,79.407 69.600,79.171 69.600 C 78.618 69.600,77.600 70.618,77.600 71.171 C 77.600 71.407,77.407 71.600,77.171 71.600 C 76.618 71.600,75.600 72.618,75.600 73.171 C 75.600 73.407,75.407 73.600,75.171 73.600 C 74.618 73.600,73.600 74.618,73.600 75.171 C 73.600 75.407,73.407 75.600,73.171 75.600 C 72.618 75.600,71.600 76.618,71.600 77.171 C 71.600 77.407,71.407 77.600,71.171 77.600 C 70.618 77.600,69.600 78.618,69.600 79.171 C 69.600 79.407,69.407 79.600,69.171 79.600 C 68.618 79.600,67.600 80.618,67.600 81.171 C 67.600 81.407,67.330 81.600,67.000 81.600 C 66.664 81.600,66.400 81.957,66.400 82.410 C 66.400 82.872,65.370 84.228,64.000 85.568 C 62.571 86.966,61.600 88.257,61.600 88.758 C 61.600 89.221,61.407 89.600,61.171 89.600 C 60.618 89.600,59.600 90.618,59.600 91.171 C 59.600 91.407,59.407 91.600,59.171 91.600 C 58.527 91.600,57.600 92.656,57.600 93.391 C 57.600 93.747,57.150 94.455,56.600 94.965 C 56.050 95.475,55.600 96.276,55.600 96.746 C 55.600 97.216,55.407 97.600,55.171 97.600 C 54.618 97.600,53.600 98.618,53.600 99.171 C 53.600 99.407,53.330 99.600,53.000 99.600 C 52.643 99.600,52.400 99.967,52.400 100.505 C 52.400 101.004,51.951 101.747,51.400 102.161 C 50.850 102.574,50.400 103.247,50.400 103.656 C 50.400 104.065,50.220 104.400,50.000 104.400 C 49.780 104.400,49.600 104.769,49.600 105.219 C 49.600 105.670,49.150 106.455,48.600 106.965 C 48.050 107.475,47.600 108.276,47.600 108.746 C 47.600 109.238,47.346 109.600,47.000 109.600 C 46.643 109.600,46.400 109.967,46.400 110.505 C 46.400 111.004,45.951 111.747,45.400 112.161 C 44.850 112.574,44.400 113.247,44.400 113.656 C 44.400 114.065,44.220 114.400,44.000 114.400 C 43.780 114.400,43.600 114.831,43.600 115.357 C 43.600 115.884,43.330 116.418,43.000 116.545 C 42.670 116.671,42.400 117.141,42.400 117.587 C 42.400 118.034,42.220 118.400,42.000 118.400 C 41.780 118.400,41.600 118.831,41.600 119.357 C 41.600 119.884,41.330 120.418,41.000 120.545 C 40.670 120.671,40.400 121.141,40.400 121.587 C 40.400 122.034,40.220 122.400,40.000 122.400 C 39.780 122.400,39.600 122.831,39.600 123.357 C 39.600 123.884,39.330 124.418,39.000 124.545 C 38.670 124.671,38.400 125.141,38.400 125.587 C 38.400 126.034,38.220 126.400,38.000 126.400 C 37.780 126.400,37.600 127.120,37.600 128.000 C 37.600 129.156,37.433 129.600,37.000 129.600 C 36.627 129.600,36.400 129.978,36.400 130.600 C 36.400 131.150,36.220 131.600,36.000 131.600 C 35.780 131.600,35.600 132.050,35.600 132.600 C 35.600 133.222,35.373 133.600,35.000 133.600 C 34.581 133.600,34.400 134.022,34.400 135.000 C 34.400 135.770,34.220 136.400,34.000 136.400 C 33.780 136.400,33.600 137.120,33.600 138.000 C 33.600 139.156,33.433 139.600,33.000 139.600 C 32.627 139.600,32.400 139.978,32.400 140.600 C 32.400 141.150,32.220 141.600,32.000 141.600 C 31.780 141.600,31.600 142.211,31.600 142.957 C 31.600 143.795,31.370 144.403,31.000 144.545 C 30.589 144.702,30.400 145.345,30.400 146.587 C 30.400 147.584,30.220 148.400,30.000 148.400 C 29.780 148.400,29.600 149.120,29.600 150.000 C 29.600 151.156,29.433 151.600,29.000 151.600 C 28.547 151.600,28.400 152.089,28.400 153.600 C 28.400 154.700,28.220 155.600,28.000 155.600 C 27.780 155.600,27.600 156.500,27.600 157.600 C 27.600 159.111,27.453 159.600,27.000 159.600 C 26.533 159.600,26.400 160.133,26.400 162.000 C 26.400 163.333,26.222 164.400,26.000 164.400 C 25.774 164.400,25.600 165.533,25.600 167.000 C 25.600 169.044,25.472 169.600,25.000 169.600 C 24.514 169.600,24.400 170.244,24.400 173.000 C 24.400 175.000,24.235 176.400,24.000 176.400 C 23.757 176.400,23.600 178.200,23.600 181.000 C 23.600 184.822,23.499 185.600,23.000 185.600 C 22.478 185.600,22.400 187.422,22.400 199.600 C 22.400 211.778,22.478 213.600,23.000 213.600 C 23.497 213.600,23.600 214.356,23.600 218.000 C 23.600 220.667,23.758 222.400,24.000 222.400 C 24.237 222.400,24.400 223.867,24.400 226.000 C 24.400 228.933,24.511 229.600,25.000 229.600 C 25.467 229.600,25.600 230.133,25.600 232.000 C 25.600 233.333,25.778 234.400,26.000 234.400 C 26.226 234.400,26.400 235.533,26.400 237.000 C 26.400 239.044,26.528 239.600,27.000 239.600 C 27.453 239.600,27.600 240.089,27.600 241.600 C 27.600 242.700,27.780 243.600,28.000 243.600 C 28.220 243.600,28.400 244.500,28.400 245.600 C 28.400 247.111,28.547 247.600,29.000 247.600 C 29.419 247.600,29.600 248.022,29.600 249.000 C 29.600 249.770,29.780 250.400,30.000 250.400 C 30.220 250.400,30.400 251.300,30.400 252.400 C 30.400 253.911,30.547 254.400,31.000 254.400 C 31.433 254.400,31.600 254.844,31.600 256.000 C 31.600 256.880,31.780 257.600,32.000 257.600 C 32.220 257.600,32.400 258.050,32.400 258.600 C 32.400 259.222,32.627 259.600,33.000 259.600 C 33.419 259.600,33.600 260.022,33.600 261.000 C 33.600 261.770,33.780 262.400,34.000 262.400 C 34.220 262.400,34.400 263.120,34.400 264.000 C 34.400 265.156,34.567 265.600,35.000 265.600 C 35.373 265.600,35.600 265.978,35.600 266.600 C 35.600 267.150,35.780 267.600,36.000 267.600 C 36.220 267.600,36.400 268.050,36.400 268.600 C 36.400 269.222,36.627 269.600,37.000 269.600 C 37.419 269.600,37.600 270.022,37.600 271.000 C 37.600 271.770,37.780 272.400,38.000 272.400 C 38.220 272.400,38.400 272.850,38.400 273.400 C 38.400 274.022,38.627 274.400,39.000 274.400 C 39.373 274.400,39.600 274.778,39.600 275.400 C 39.600 275.950,39.780 276.400,40.000 276.400 C 40.220 276.400,40.400 276.850,40.400 277.400 C 40.400 278.022,40.627 278.400,41.000 278.400 C 41.373 278.400,41.600 278.778,41.600 279.400 C 41.600 279.950,41.780 280.400,42.000 280.400 C 42.220 280.400,42.400 280.850,42.400 281.400 C 42.400 282.022,42.627 282.400,43.000 282.400 C 43.373 282.400,43.600 282.778,43.600 283.400 C 43.600 283.950,43.780 284.400,44.000 284.400 C 44.220 284.400,44.400 284.850,44.400 285.400 C 44.400 286.022,44.627 286.400,45.000 286.400 C 45.330 286.400,45.600 286.670,45.600 287.000 C 45.600 287.330,45.780 287.600,46.000 287.600 C 46.220 287.600,46.400 288.050,46.400 288.600 C 46.400 289.222,46.627 289.600,47.000 289.600 C 47.340 289.600,47.600 289.959,47.600 290.429 C 47.600 291.314,48.466 292.400,49.171 292.400 C 49.407 292.400,49.600 292.850,49.600 293.400 C 49.600 293.950,49.780 294.400,50.000 294.400 C 50.220 294.400,50.400 294.850,50.400 295.400 C 50.400 296.022,50.627 296.400,51.000 296.400 C 51.330 296.400,51.600 296.670,51.600 297.000 C 51.600 297.330,51.780 297.600,52.000 297.600 C 52.220 297.600,52.400 298.050,52.400 298.600 C 52.400 299.150,52.593 299.600,52.829 299.600 C 53.382 299.600,54.400 300.618,54.400 301.171 C 54.400 301.407,54.670 301.600,55.000 301.600 C 55.340 301.600,55.600 301.959,55.600 302.429 C 55.600 303.314,56.466 304.400,57.171 304.400 C 57.407 304.400,57.600 304.850,57.600 305.400 C 57.600 305.950,57.780 306.400,58.000 306.400 C 58.220 306.400,58.400 306.670,58.400 307.000 C 58.400 307.330,58.593 307.600,58.829 307.600 C 59.382 307.600,60.400 308.618,60.400 309.171 C 60.400 309.407,60.670 309.600,61.000 309.600 C 61.340 309.600,61.600 309.959,61.600 310.429 C 61.600 311.314,62.466 312.400,63.171 312.400 C 63.407 312.400,63.600 312.593,63.600 312.829 C 63.600 313.382,64.618 314.400,65.171 314.400 C 65.407 314.400,65.600 314.670,65.600 315.000 C 65.600 315.330,65.780 315.600,66.000 315.600 C 66.220 315.600,66.400 316.050,66.400 316.600 C 66.400 317.150,66.593 317.600,66.829 317.600 C 67.382 317.600,68.400 318.618,68.400 319.171 C 68.400 319.407,68.593 319.600,68.829 319.600 C 69.382 319.600,70.400 320.618,70.400 321.171 C 70.400 321.407,70.593 321.600,70.829 321.600 C 71.382 321.600,72.400 322.618,72.400 323.171 C 72.400 323.407,72.593 323.600,72.829 323.600 C 73.382 323.600,74.400 324.618,74.400 325.171 C 74.400 325.407,74.593 325.600,74.829 325.600 C 75.382 325.600,76.400 326.618,76.400 327.171 C 76.400 327.407,76.593 327.600,76.829 327.600 C 77.382 327.600,78.400 328.618,78.400 329.171 C 78.400 329.407,78.593 329.600,78.829 329.600 C 79.382 329.600,80.400 330.618,80.400 331.171 C 80.400 331.407,80.670 331.600,81.000 331.600 C 81.330 331.600,81.600 331.780,81.600 332.000 C 81.600 332.220,82.050 332.400,82.600 332.400 C 83.150 332.400,83.600 332.593,83.600 332.829 C 83.600 333.382,84.618 334.400,85.171 334.400 C 85.407 334.400,85.600 334.593,85.600 334.829 C 85.600 335.382,86.618 336.400,87.171 336.400 C 87.407 336.400,87.600 336.670,87.600 337.000 C 87.600 337.340,87.959 337.600,88.429 337.600 C 89.314 337.600,90.400 338.466,90.400 339.171 C 90.400 339.407,90.670 339.600,91.000 339.600 C 91.330 339.600,91.600 339.780,91.600 340.000 C 91.600 340.220,92.050 340.400,92.600 340.400 C 93.150 340.400,93.600 340.593,93.600 340.829 C 93.600 341.382,94.618 342.400,95.171 342.400 C 95.407 342.400,95.600 342.670,95.600 343.000 C 95.600 343.340,95.959 343.600,96.429 343.600 C 97.314 343.600,98.400 344.466,98.400 345.171 C 98.400 345.407,98.850 345.600,99.400 345.600 C 99.950 345.600,100.400 345.780,100.400 346.000 C 100.400 346.220,100.670 346.400,101.000 346.400 C 101.330 346.400,101.600 346.670,101.600 347.000 C 101.600 347.340,101.959 347.600,102.429 347.600 C 103.314 347.600,104.400 348.466,104.400 349.171 C 104.400 349.407,104.850 349.600,105.400 349.600 C 105.950 349.600,106.400 349.780,106.400 350.000 C 106.400 350.220,106.670 350.400,107.000 350.400 C 107.330 350.400,107.600 350.670,107.600 351.000 C 107.600 351.373,107.978 351.600,108.600 351.600 C 109.150 351.600,109.600 351.780,109.600 352.000 C 109.600 352.220,110.050 352.400,110.600 352.400 C 111.222 352.400,111.600 352.627,111.600 353.000 C 111.600 353.340,111.959 353.600,112.429 353.600 C 113.314 353.600,114.400 354.466,114.400 355.171 C 114.400 355.407,114.850 355.600,115.400 355.600 C 115.950 355.600,116.400 355.780,116.400 356.000 C 116.400 356.220,116.850 356.400,117.400 356.400 C 118.022 356.400,118.400 356.627,118.400 357.000 C 118.400 357.373,118.778 357.600,119.400 357.600 C 119.950 357.600,120.400 357.780,120.400 358.000 C 120.400 358.220,120.850 358.400,121.400 358.400 C 122.022 358.400,122.400 358.627,122.400 359.000 C 122.400 359.373,122.778 359.600,123.400 359.600 C 123.950 359.600,124.400 359.780,124.400 360.000 C 124.400 360.220,124.850 360.400,125.400 360.400 C 126.022 360.400,126.400 360.627,126.400 361.000 C 126.400 361.433,126.844 361.600,128.000 361.600 C 128.880 361.600,129.600 361.780,129.600 362.000 C 129.600 362.220,130.050 362.400,130.600 362.400 C 131.222 362.400,131.600 362.627,131.600 363.000 C 131.600 363.419,132.022 363.600,133.000 363.600 C 133.770 363.600,134.400 363.780,134.400 364.000 C 134.400 364.220,134.850 364.400,135.400 364.400 C 136.022 364.400,136.400 364.627,136.400 365.000 C 136.400 365.433,136.844 365.600,138.000 365.600 C 138.880 365.600,139.600 365.780,139.600 366.000 C 139.600 366.220,140.230 366.400,141.000 366.400 C 141.978 366.400,142.400 366.581,142.400 367.000 C 142.400 367.433,142.844 367.600,144.000 367.600 C 144.880 367.600,145.600 367.780,145.600 368.000 C 145.600 368.220,146.230 368.400,147.000 368.400 C 147.978 368.400,148.400 368.581,148.400 369.000 C 148.400 369.433,148.844 369.600,150.000 369.600 C 150.880 369.600,151.600 369.780,151.600 370.000 C 151.600 370.220,152.500 370.400,153.600 370.400 C 155.111 370.400,155.600 370.547,155.600 371.000 C 155.600 371.453,156.089 371.600,157.600 371.600 C 158.700 371.600,159.600 371.780,159.600 372.000 C 159.600 372.222,160.667 372.400,162.000 372.400 C 163.867 372.400,164.400 372.533,164.400 373.000 C 164.400 373.472,164.956 373.600,167.000 373.600 C 168.467 373.600,169.600 373.774,169.600 374.000 C 169.600 374.235,171.000 374.400,173.000 374.400 C 175.756 374.400,176.400 374.514,176.400 375.000 C 176.400 375.501,177.222 375.600,181.400 375.600 C 184.467 375.600,186.400 375.755,186.400 376.000 C 186.400 376.259,191.200 376.400,200.000 376.400 C 208.800 376.400,213.600 376.259,213.600 376.000 C 213.600 375.755,215.533 375.600,218.600 375.600 C 222.778 375.600,223.600 375.501,223.600 375.000 C 223.600 374.514,224.244 374.400,227.000 374.400 C 229.000 374.400,230.400 374.235,230.400 374.000 C 230.400 373.774,231.533 373.600,233.000 373.600 C 235.044 373.600,235.600 373.472,235.600 373.000 C 235.600 372.533,236.133 372.400,238.000 372.400 C 239.333 372.400,240.400 372.222,240.400 372.000 C 240.400 371.780,241.300 371.600,242.400 371.600 C 243.911 371.600,244.400 371.453,244.400 371.000 C 244.400 370.547,244.889 370.400,246.400 370.400 C 247.500 370.400,248.400 370.220,248.400 370.000 C 248.400 369.780,249.120 369.600,250.000 369.600 C 251.156 369.600,251.600 369.433,251.600 369.000 C 251.600 368.581,252.022 368.400,253.000 368.400 C 253.770 368.400,254.400 368.220,254.400 368.000 C 254.400 367.780,255.120 367.600,256.000 367.600 C 257.156 367.600,257.600 367.433,257.600 367.000 C 257.600 366.581,258.022 366.400,259.000 366.400 C 259.770 366.400,260.400 366.220,260.400 366.000 C 260.400 365.780,261.120 365.600,262.000 365.600 C 263.156 365.600,263.600 365.433,263.600 365.000 C 263.600 364.627,263.978 364.400,264.600 364.400 C 265.150 364.400,265.600 364.220,265.600 364.000 C 265.600 363.780,266.230 363.600,267.000 363.600 C 267.978 363.600,268.400 363.419,268.400 363.000 C 268.400 362.627,268.778 362.400,269.400 362.400 C 269.950 362.400,270.400 362.220,270.400 362.000 C 270.400 361.780,271.120 361.600,272.000 361.600 C 273.156 361.600,273.600 361.433,273.600 361.000 C 273.600 360.627,273.978 360.400,274.600 360.400 C 275.150 360.400,275.600 360.220,275.600 360.000 C 275.600 359.780,276.050 359.600,276.600 359.600 C 277.222 359.600,277.600 359.373,277.600 359.000 C 277.600 358.627,277.978 358.400,278.600 358.400 C 279.150 358.400,279.600 358.220,279.600 358.000 C 279.600 357.780,280.050 357.600,280.600 357.600 C 281.222 357.600,281.600 357.373,281.600 357.000 C 281.600 356.627,281.978 356.400,282.600 356.400 C 283.150 356.400,283.600 356.220,283.600 356.000 C 283.600 355.780,284.050 355.600,284.600 355.600 C 285.150 355.600,285.600 355.407,285.600 355.171 C 285.600 354.466,286.686 353.600,287.571 353.600 C 288.041 353.600,288.400 353.340,288.400 353.000 C 288.400 352.627,288.778 352.400,289.400 352.400 C 289.950 352.400,290.400 352.220,290.400 352.000 C 290.400 351.780,290.850 351.600,291.400 351.600 C 292.022 351.600,292.400 351.373,292.400 351.000 C 292.400 350.670,292.670 350.400,293.000 350.400 C 293.330 350.400,293.600 350.220,293.600 350.000 C 293.600 349.780,294.050 349.600,294.600 349.600 C 295.150 349.600,295.600 349.407,295.600 349.171 C 295.600 348.466,296.686 347.600,297.571 347.600 C 298.041 347.600,298.400 347.340,298.400 347.000 C 298.400 346.670,298.670 346.400,299.000 346.400 C 299.330 346.400,299.600 346.220,299.600 346.000 C 299.600 345.780,300.050 345.600,300.600 345.600 C 301.150 345.600,301.600 345.407,301.600 345.171 C 301.600 344.466,302.686 343.600,303.571 343.600 C 304.041 343.600,304.400 343.340,304.400 343.000 C 304.400 342.670,304.593 342.400,304.829 342.400 C 305.382 342.400,306.400 341.382,306.400 340.829 C 306.400 340.593,306.850 340.400,307.400 340.400 C 307.950 340.400,308.400 340.220,308.400 340.000 C 308.400 339.780,308.670 339.600,309.000 339.600 C 309.330 339.600,309.600 339.407,309.600 339.171 C 309.600 338.466,310.686 337.600,311.571 337.600 C 312.041 337.600,312.400 337.340,312.400 337.000 C 312.400 336.670,312.593 336.400,312.829 336.400 C 313.382 336.400,314.400 335.382,314.400 334.829 C 314.400 334.593,314.593 334.400,314.829 334.400 C 315.382 334.400,316.400 333.382,316.400 332.829 C 316.400 332.593,316.850 332.400,317.400 332.400 C 317.950 332.400,318.400 332.220,318.400 332.000 C 318.400 331.780,318.670 331.600,319.000 331.600 C 319.330 331.600,319.600 331.407,319.600 331.171 C 319.600 330.618,320.618 329.600,321.171 329.600 C 321.407 329.600,321.600 329.407,321.600 329.171 C 321.600 328.618,322.618 327.600,323.171 327.600 C 323.407 327.600,323.600 327.407,323.600 327.171 C 323.600 326.618,324.618 325.600,325.171 325.600 C 325.407 325.600,325.600 325.407,325.600 325.171 C 325.600 324.618,326.618 323.600,327.171 323.600 C 327.407 323.600,327.600 323.407,327.600 323.171 C 327.600 322.618,328.618 321.600,329.171 321.600 C 329.407 321.600,329.600 321.407,329.600 321.171 C 329.600 320.618,330.618 319.600,331.171 319.600 C 331.407 319.600,331.600 319.407,331.600 319.171 C 331.600 318.618,332.618 317.600,333.171 317.600 C 333.407 317.600,333.600 317.150,333.600 316.600 C 333.600 316.050,333.780 315.600,334.000 315.600 C 334.220 315.600,334.400 315.330,334.400 315.000 C 334.400 314.670,334.593 314.400,334.829 314.400 C 335.382 314.400,336.400 313.382,336.400 312.829 C 336.400 312.593,336.593 312.400,336.829 312.400 C 337.534 312.400,338.400 311.314,338.400 310.429 C 338.400 309.959,338.660 309.600,339.000 309.600 C 339.330 309.600,339.600 309.407,339.600 309.171 C 339.600 308.618,340.618 307.600,341.171 307.600 C 341.407 307.600,341.600 307.330,341.600 307.000 C 341.600 306.670,341.780 306.400,342.000 306.400 C 342.220 306.400,342.400 305.950,342.400 305.400 C 342.400 304.850,342.593 304.400,342.829 304.400 C 343.534 304.400,344.400 303.314,344.400 302.429 C 344.400 301.959,344.660 301.600,345.000 301.600 C 345.330 301.600,345.600 301.407,345.600 301.171 C 345.600 300.618,346.618 299.600,347.171 299.600 C 347.407 299.600,347.600 299.150,347.600 298.600 C 347.600 298.050,347.780 297.600,348.000 297.600 C 348.220 297.600,348.400 297.330,348.400 297.000 C 348.400 296.670,348.670 296.400,349.000 296.400 C 349.373 296.400,349.600 296.022,349.600 295.400 C 349.600 294.850,349.780 294.400,350.000 294.400 C 350.220 294.400,350.400 293.950,350.400 293.400 C 350.400 292.850,350.593 292.400,350.829 292.400 C 351.534 292.400,352.400 291.314,352.400 290.429 C 352.400 289.959,352.660 289.600,353.000 289.600 C 353.373 289.600,353.600 289.222,353.600 288.600 C 353.600 288.050,353.780 287.600,354.000 287.600 C 354.220 287.600,354.400 287.330,354.400 287.000 C 354.400 286.670,354.670 286.400,355.000 286.400 C 355.373 286.400,355.600 286.022,355.600 285.400 C 355.600 284.850,355.780 284.400,356.000 284.400 C 356.220 284.400,356.400 283.950,356.400 283.400 C 356.400 282.778,356.627 282.400,357.000 282.400 C 357.373 282.400,357.600 282.022,357.600 281.400 C 357.600 280.850,357.780 280.400,358.000 280.400 C 358.220 280.400,358.400 279.950,358.400 279.400 C 358.400 278.778,358.627 278.400,359.000 278.400 C 359.373 278.400,359.600 278.022,359.600 277.400 C 359.600 276.850,359.780 276.400,360.000 276.400 C 360.220 276.400,360.400 275.950,360.400 275.400 C 360.400 274.778,360.627 274.400,361.000 274.400 C 361.373 274.400,361.600 274.022,361.600 273.400 C 361.600 272.850,361.780 272.400,362.000 272.400 C 362.220 272.400,362.400 271.770,362.400 271.000 C 362.400 270.022,362.581 269.600,363.000 269.600 C 363.373 269.600,363.600 269.222,363.600 268.600 C 363.600 268.050,363.780 267.600,364.000 267.600 C 364.220 267.600,364.400 267.150,364.400 266.600 C 364.400 265.978,364.627 265.600,365.000 265.600 C 365.433 265.600,365.600 265.156,365.600 264.000 C 365.600 263.120,365.780 262.400,366.000 262.400 C 366.220 262.400,366.400 261.770,366.400 261.000 C 366.400 260.022,366.581 259.600,367.000 259.600 C 367.373 259.600,367.600 259.222,367.600 258.600 C 367.600 258.050,367.780 257.600,368.000 257.600 C 368.220 257.600,368.400 256.880,368.400 256.000 C 368.400 254.844,368.567 254.400,369.000 254.400 C 369.453 254.400,369.600 253.911,369.600 252.400 C 369.600 251.300,369.780 250.400,370.000 250.400 C 370.220 250.400,370.400 249.770,370.400 249.000 C 370.400 248.022,370.581 247.600,371.000 247.600 C 371.453 247.600,371.600 247.111,371.600 245.600 C 371.600 244.500,371.780 243.600,372.000 243.600 C 372.220 243.600,372.400 242.700,372.400 241.600 C 372.400 240.089,372.547 239.600,373.000 239.600 C 373.472 239.600,373.600 239.044,373.600 237.000 C 373.600 235.533,373.774 234.400,374.000 234.400 C 374.222 234.400,374.400 233.333,374.400 232.000 C 374.400 230.133,374.533 229.600,375.000 229.600 C 375.489 229.600,375.600 228.933,375.600 226.000 C 375.600 223.867,375.763 222.400,376.000 222.400 C 376.242 222.400,376.400 220.667,376.400 218.000 C 376.400 214.356,376.503 213.600,377.000 213.600 C 377.522 213.600,377.600 211.778,377.600 199.600 C 377.600 187.422,377.522 185.600,377.000 185.600 C 376.501 185.600,376.400 184.822,376.400 181.000 C 376.400 178.200,376.243 176.400,376.000 176.400 C 375.765 176.400,375.600 175.000,375.600 173.000 C 375.600 170.244,375.486 169.600,375.000 169.600 C 374.528 169.600,374.400 169.044,374.400 167.000 C 374.400 165.533,374.226 164.400,374.000 164.400 C 373.778 164.400,373.600 163.333,373.600 162.000 C 373.600 160.133,373.467 159.600,373.000 159.600 C 372.547 159.600,372.400 159.111,372.400 157.600 C 372.400 156.500,372.220 155.600,372.000 155.600 C 371.780 155.600,371.600 154.700,371.600 153.600 C 371.600 152.089,371.453 151.600,371.000 151.600 C 370.567 151.600,370.400 151.156,370.400 150.000 C 370.400 149.120,370.220 148.400,370.000 148.400 C 369.780 148.400,369.600 147.500,369.600 146.400 C 369.600 144.889,369.453 144.400,369.000 144.400 C 368.581 144.400,368.400 143.978,368.400 143.000 C 368.400 142.230,368.220 141.600,368.000 141.600 C 367.780 141.600,367.600 141.150,367.600 140.600 C 367.600 139.978,367.373 139.600,367.000 139.600 C 366.567 139.600,366.400 139.156,366.400 138.000 C 366.400 137.120,366.220 136.400,366.000 136.400 C 365.780 136.400,365.600 135.770,365.600 135.000 C 365.600 134.022,365.419 133.600,365.000 133.600 C 364.627 133.600,364.400 133.222,364.400 132.600 C 364.400 132.050,364.220 131.600,364.000 131.600 C 363.780 131.600,363.600 131.150,363.600 130.600 C 363.600 129.978,363.373 129.600,363.000 129.600 C 362.567 129.600,362.400 129.156,362.400 128.000 C 362.400 127.120,362.220 126.400,362.000 126.400 C 361.780 126.400,361.600 125.950,361.600 125.400 C 361.600 124.778,361.373 124.400,361.000 124.400 C 360.627 124.400,360.400 124.022,360.400 123.400 C 360.400 122.850,360.220 122.400,360.000 122.400 C 359.780 122.400,359.600 121.950,359.600 121.400 C 359.600 120.778,359.373 120.400,359.000 120.400 C 358.627 120.400,358.400 120.022,358.400 119.400 C 358.400 118.850,358.220 118.400,358.000 118.400 C 357.780 118.400,357.600 117.950,357.600 117.400 C 357.600 116.778,357.373 116.400,357.000 116.400 C 356.627 116.400,356.400 116.022,356.400 115.400 C 356.400 114.850,356.220 114.400,356.000 114.400 C 355.780 114.400,355.600 113.950,355.600 113.400 C 355.600 112.850,355.407 112.400,355.171 112.400 C 354.466 112.400,353.600 111.314,353.600 110.429 C 353.600 109.959,353.340 109.600,353.000 109.600 C 352.627 109.600,352.400 109.222,352.400 108.600 C 352.400 108.050,352.220 107.600,352.000 107.600 C 351.780 107.600,351.600 107.330,351.600 107.000 C 351.600 106.670,351.330 106.400,351.000 106.400 C 350.627 106.400,350.400 106.022,350.400 105.400 C 350.400 104.850,350.220 104.400,350.000 104.400 C 349.780 104.400,349.600 103.950,349.600 103.400 C 349.600 102.850,349.407 102.400,349.171 102.400 C 348.466 102.400,347.600 101.314,347.600 100.429 C 347.600 99.959,347.340 99.600,347.000 99.600 C 346.670 99.600,346.400 99.407,346.400 99.171 C 346.400 98.618,345.382 97.600,344.829 97.600 C 344.593 97.600,344.400 97.150,344.400 96.600 C 344.400 96.050,344.220 95.600,344.000 95.600 C 343.780 95.600,343.600 95.330,343.600 95.000 C 343.600 94.670,343.330 94.400,343.000 94.400 C 342.660 94.400,342.400 94.041,342.400 93.571 C 342.400 92.686,341.534 91.600,340.829 91.600 C 340.593 91.600,340.400 91.407,340.400 91.171 C 340.400 90.618,339.382 89.600,338.829 89.600 C 338.593 89.600,338.400 89.150,338.400 88.600 C 338.400 88.050,338.220 87.600,338.000 87.600 C 337.780 87.600,337.600 87.330,337.600 87.000 C 337.600 86.670,337.407 86.400,337.171 86.400 C 336.618 86.400,335.600 85.382,335.600 84.829 C 335.600 84.593,335.407 84.400,335.171 84.400 C 334.466 84.400,333.600 83.314,333.600 82.429 C 333.600 81.959,333.340 81.600,333.000 81.600 C 332.670 81.600,332.400 81.407,332.400 81.171 C 332.400 80.618,331.382 79.600,330.829 79.600 C 330.593 79.600,330.400 79.407,330.400 79.171 C 330.400 78.618,329.382 77.600,328.829 77.600 C 328.593 77.600,328.400 77.407,328.400 77.171 C 328.400 76.618,327.382 75.600,326.829 75.600 C 326.593 75.600,326.400 75.407,326.400 75.171 C 326.400 74.618,325.382 73.600,324.829 73.600 C 324.593 73.600,324.400 73.407,324.400 73.171 C 324.400 72.618,323.382 71.600,322.829 71.600 C 322.593 71.600,322.400 71.407,322.400 71.171 C 322.400 70.618,321.382 69.600,320.829 69.600 C 320.593 69.600,320.400 69.407,320.400 69.171 C 320.400 68.618,319.382 67.600,318.829 67.600 C 318.593 67.600,318.400 67.330,318.400 67.000 C 318.400 66.660,318.041 66.400,317.571 66.400 C 316.686 66.400,315.600 65.534,315.600 64.829 C 315.600 64.593,315.407 64.400,315.171 64.400 C 314.618 64.400,313.600 63.382,313.600 62.829 C 313.600 62.593,313.330 62.400,313.000 62.400 C 312.670 62.400,312.400 62.220,312.400 62.000 C 312.400 61.780,311.950 61.600,311.400 61.600 C 310.850 61.600,310.400 61.407,310.400 61.171 C 310.400 60.618,309.382 59.600,308.829 59.600 C 308.593 59.600,308.400 59.330,308.400 59.000 C 308.400 58.660,308.041 58.400,307.571 58.400 C 306.686 58.400,305.600 57.534,305.600 56.829 C 305.600 56.593,305.330 56.400,305.000 56.400 C 304.670 56.400,304.400 56.220,304.400 56.000 C 304.400 55.780,303.950 55.600,303.400 55.600 C 302.850 55.600,302.400 55.407,302.400 55.171 C 302.400 54.466,301.314 53.600,300.429 53.600 C 299.959 53.600,299.600 53.340,299.600 53.000 C 299.600 52.670,299.330 52.400,299.000 52.400 C 298.670 52.400,298.400 52.220,298.400 52.000 C 298.400 51.780,297.950 51.600,297.400 51.600 C 296.850 51.600,296.400 51.407,296.400 51.171 C 296.400 50.466,295.314 49.600,294.429 49.600 C 293.959 49.600,293.600 49.340,293.600 49.000 C 293.600 48.670,293.330 48.400,293.000 48.400 C 292.670 48.400,292.400 48.220,292.400 48.000 C 292.400 47.780,291.950 47.600,291.400 47.600 C 290.778 47.600,290.400 47.373,290.400 47.000 C 290.400 46.627,290.022 46.400,289.400 46.400 C 288.850 46.400,288.400 46.220,288.400 46.000 C 288.400 45.780,287.950 45.600,287.400 45.600 C 286.850 45.600,286.400 45.407,286.400 45.171 C 286.400 44.466,285.314 43.600,284.429 43.600 C 283.959 43.600,283.600 43.340,283.600 43.000 C 283.600 42.627,283.222 42.400,282.600 42.400 C 282.050 42.400,281.600 42.220,281.600 42.000 C 281.600 41.780,281.150 41.600,280.600 41.600 C 279.978 41.600,279.600 41.373,279.600 41.000 C 279.600 40.627,279.222 40.400,278.600 40.400 C 278.050 40.400,277.600 40.220,277.600 40.000 C 277.600 39.780,277.150 39.600,276.600 39.600 C 275.978 39.600,275.600 39.373,275.600 39.000 C 275.600 38.627,275.222 38.400,274.600 38.400 C 274.050 38.400,273.600 38.220,273.600 38.000 C 273.600 37.780,272.880 37.600,272.000 37.600 C 270.844 37.600,270.400 37.433,270.400 37.000 C 270.400 36.627,270.022 36.400,269.400 36.400 C 268.850 36.400,268.400 36.220,268.400 36.000 C 268.400 35.780,267.770 35.600,267.000 35.600 C 266.022 35.600,265.600 35.419,265.600 35.000 C 265.600 34.627,265.222 34.400,264.600 34.400 C 264.050 34.400,263.600 34.220,263.600 34.000 C 263.600 33.780,262.880 33.600,262.000 33.600 C 260.844 33.600,260.400 33.433,260.400 33.000 C 260.400 32.581,259.978 32.400,259.000 32.400 C 258.230 32.400,257.600 32.220,257.600 32.000 C 257.600 31.780,256.880 31.600,256.000 31.600 C 254.844 31.600,254.400 31.433,254.400 31.000 C 254.400 30.581,253.978 30.400,253.000 30.400 C 252.230 30.400,251.600 30.220,251.600 30.000 C 251.600 29.780,250.880 29.600,250.000 29.600 C 248.844 29.600,248.400 29.433,248.400 29.000 C 248.400 28.547,247.911 28.400,246.400 28.400 C 245.300 28.400,244.400 28.220,244.400 28.000 C 244.400 27.780,243.500 27.600,242.400 27.600 C 240.889 27.600,240.400 27.453,240.400 27.000 C 240.400 26.533,239.867 26.400,238.000 26.400 C 236.667 26.400,235.600 26.222,235.600 26.000 C 235.600 25.774,234.467 25.600,233.000 25.600 C 230.956 25.600,230.400 25.472,230.400 25.000 C 230.400 24.514,229.756 24.400,227.000 24.400 C 225.000 24.400,223.600 24.235,223.600 24.000 C 223.600 23.755,221.667 23.600,218.600 23.600 C 214.422 23.600,213.600 23.501,213.600 23.000 C 213.600 22.479,211.843 22.400,200.187 22.400 C 188.634 22.400,186.743 22.483,186.545 23.000 M202.655 49.100 C 203.765 50.805,205.170 53.100,205.777 54.200 C 206.383 55.300,207.132 56.484,207.440 56.831 C 207.748 57.179,208.000 57.581,208.000 57.725 C 208.000 57.869,209.825 60.915,212.055 64.494 C 217.606 73.400,217.560 73.324,217.856 74.000 C 218.000 74.330,218.501 75.140,218.970 75.800 C 219.438 76.460,220.172 77.675,220.601 78.500 C 221.031 79.325,221.521 80.000,221.691 80.000 C 221.861 80.000,222.000 80.166,222.000 80.370 C 222.000 80.573,224.700 85.093,228.000 90.413 C 231.300 95.734,234.000 100.185,234.000 100.306 C 234.000 100.426,234.450 101.114,235.000 101.836 C 235.550 102.557,236.000 103.261,236.000 103.400 C 236.000 103.539,236.450 104.243,237.000 104.964 C 237.550 105.686,238.000 106.411,238.000 106.576 C 238.000 106.741,238.405 107.444,238.900 108.137 C 239.395 108.830,240.135 110.027,240.545 110.798 C 240.955 111.569,241.900 113.055,242.645 114.101 C 243.390 115.146,244.000 116.096,244.000 116.211 C 244.000 116.420,247.103 121.450,247.696 122.200 C 248.288 122.951,250.000 125.635,250.000 125.814 C 250.000 125.912,250.849 127.299,251.887 128.896 C 253.736 131.743,254.800 133.547,254.800 133.837 C 254.800 134.207,243.729 141.200,243.144 141.200 C 242.611 141.200,228.000 118.649,228.000 117.827 C 228.000 117.731,226.200 114.758,224.000 111.220 C 221.800 107.682,220.000 104.688,220.000 104.567 C 220.000 104.446,219.550 103.757,219.000 103.036 C 218.450 102.314,218.000 101.594,218.000 101.436 C 218.000 101.277,217.550 100.557,217.000 99.836 C 216.450 99.114,216.000 98.417,216.000 98.285 C 216.000 98.153,213.750 94.432,211.000 90.016 C 208.250 85.600,206.000 81.889,206.000 81.771 C 206.000 81.653,205.100 80.191,204.000 78.523 C 202.900 76.854,202.000 75.350,202.000 75.180 C 202.000 74.589,199.575 72.835,199.040 73.040 C 198.509 73.244,196.000 76.496,196.000 76.982 C 196.000 77.120,195.665 77.720,195.256 78.316 C 194.621 79.242,188.694 88.810,186.036 93.200 C 185.570 93.970,185.080 94.915,184.948 95.300 C 184.815 95.685,184.548 96.000,184.353 96.000 C 184.159 96.000,184.000 96.187,184.000 96.416 C 184.000 96.645,183.664 97.320,183.253 97.916 C 181.950 99.806,174.000 112.851,174.000 113.099 C 174.000 113.230,173.742 113.622,173.428 113.969 C 173.113 114.317,172.587 115.119,172.259 115.751 C 171.931 116.383,168.274 122.365,164.131 129.044 C 155.518 142.931,156.533 142.094,151.517 139.453 C 149.693 138.493,147.255 137.214,146.100 136.611 C 144.683 135.872,144.000 135.268,144.000 134.753 C 144.000 133.997,151.069 122.323,151.682 122.067 C 151.857 121.993,152.000 121.771,152.000 121.573 C 152.000 121.375,155.150 116.162,159.000 109.989 C 162.850 103.815,166.000 98.665,166.000 98.544 C 166.000 98.423,166.405 97.756,166.900 97.063 C 167.395 96.370,168.070 95.352,168.400 94.802 C 169.790 92.482,170.837 90.776,175.300 83.568 C 177.885 79.392,180.000 75.880,180.000 75.761 C 180.000 75.643,180.450 74.957,181.000 74.236 C 181.550 73.514,182.000 72.778,182.000 72.600 C 182.000 72.422,182.450 71.686,183.000 70.964 C 183.550 70.243,184.000 69.461,184.000 69.227 C 184.000 68.992,184.137 68.800,184.305 68.800 C 184.473 68.800,184.788 68.431,185.005 67.979 C 185.222 67.528,187.650 63.462,190.400 58.943 C 193.150 54.425,195.760 50.117,196.200 49.370 C 198.873 44.837,199.853 44.796,202.655 49.100 M96.194 79.300 C 96.066 80.455,95.751 82.570,95.495 84.000 C 94.840 87.648,94.866 100.397,95.533 103.400 C 96.762 108.927,97.264 110.474,99.170 114.600 C 100.381 117.223,100.879 118.084,103.385 121.900 C 105.647 125.343,111.877 131.400,116.243 134.400 C 124.682 140.199,131.812 144.102,145.800 150.582 C 149.096 152.108,149.485 152.280,152.200 153.414 C 155.009 154.586,155.357 154.735,157.689 155.767 C 158.948 156.324,160.433 156.894,160.989 157.033 C 161.545 157.173,162.000 157.447,162.000 157.643 C 162.000 157.840,162.210 158.000,162.466 158.000 C 163.212 158.000,166.000 159.323,166.000 159.677 C 166.000 159.855,166.272 160.000,166.604 160.000 C 167.398 160.000,173.258 163.669,175.800 165.757 C 181.786 170.675,187.790 178.835,189.016 183.720 C 189.166 184.318,189.449 184.906,189.644 185.027 C 189.840 185.148,190.000 185.879,190.000 186.651 C 190.000 188.764,188.977 188.326,185.119 184.563 C 181.583 181.115,177.002 177.573,173.525 175.600 C 170.814 174.061,162.463 170.000,162.009 170.000 C 161.820 170.000,161.155 169.747,160.532 169.437 C 159.910 169.127,158.950 168.696,158.400 168.478 C 157.850 168.260,156.770 167.820,156.000 167.501 C 155.230 167.181,153.970 166.694,153.200 166.417 C 152.430 166.141,151.260 165.678,150.600 165.390 C 149.493 164.906,143.991 162.748,140.200 161.311 C 137.724 160.372,137.165 160.140,134.725 159.032 C 133.473 158.465,132.324 158.000,132.171 158.000 C 131.605 158.000,119.356 151.812,118.162 150.922 C 117.481 150.415,116.801 150.000,116.651 150.000 C 116.367 150.000,110.301 145.696,108.200 144.003 C 105.484 141.815,99.559 135.463,97.472 132.503 C 93.702 127.152,91.675 122.822,89.655 115.800 C 87.125 107.006,87.864 92.011,91.163 85.181 C 91.624 84.229,92.000 83.290,92.000 83.095 C 92.000 82.457,95.573 77.200,96.006 77.200 C 96.278 77.200,96.345 77.947,96.194 79.300 M305.070 79.700 C 310.588 88.547,312.593 104.136,309.609 115.000 C 308.192 120.162,307.003 123.464,305.648 126.000 C 303.711 129.628,301.971 132.290,299.418 135.530 C 292.626 144.148,279.374 153.003,264.000 159.196 C 262.790 159.684,261.440 160.232,261.000 160.414 C 257.875 161.710,256.215 162.365,249.200 165.074 C 247.770 165.626,246.240 166.228,245.800 166.412 C 244.114 167.116,242.098 167.934,239.400 169.010 C 226.582 174.123,217.127 180.249,211.483 187.100 C 209.673 189.297,208.560 188.049,209.560 184.943 C 212.075 177.130,218.914 168.320,226.000 163.765 C 226.990 163.128,227.890 162.516,228.000 162.404 C 228.862 161.526,237.274 157.377,243.000 155.005 C 255.477 149.838,270.493 142.522,275.992 138.932 C 285.371 132.809,290.443 128.601,293.991 124.000 C 294.755 123.010,295.496 122.110,295.638 122.000 C 297.550 120.521,302.196 110.004,303.276 104.709 C 303.895 101.671,304.143 88.322,303.641 85.000 C 302.857 79.808,302.677 77.200,303.104 77.200 C 303.327 77.200,304.212 78.325,305.070 79.700 M79.477 93.889 C 74.956 120.628,81.069 139.705,98.698 153.871 C 99.744 154.712,100.690 155.497,100.800 155.615 C 101.190 156.034,106.791 160.000,106.993 160.000 C 107.106 160.000,108.054 160.607,109.099 161.348 C 110.145 162.089,112.080 163.283,113.400 164.001 C 114.720 164.719,115.980 165.435,116.200 165.593 C 117.586 166.586,126.178 170.983,132.600 173.987 C 140.260 177.569,140.953 177.883,143.200 178.793 C 144.410 179.283,146.030 179.948,146.800 180.271 C 148.090 180.813,148.822 181.125,151.600 182.317 C 152.150 182.553,153.320 183.052,154.200 183.427 C 172.562 191.245,183.712 201.632,188.960 215.808 C 191.153 221.732,190.191 222.162,185.286 217.454 C 183.369 215.613,181.098 213.451,180.239 212.649 C 178.650 211.164,170.779 205.807,168.600 204.726 C 167.940 204.399,166.140 203.492,164.600 202.711 C 163.060 201.930,161.170 201.022,160.400 200.693 C 159.630 200.365,157.960 199.624,156.689 199.048 C 155.418 198.472,154.201 198.000,153.984 198.000 C 153.767 198.000,153.277 197.829,152.895 197.619 C 152.149 197.211,150.997 196.733,146.600 195.008 C 145.060 194.403,143.260 193.686,142.600 193.415 C 141.940 193.143,140.770 192.695,140.000 192.420 C 139.230 192.144,138.240 191.767,137.800 191.581 C 137.360 191.395,135.560 190.677,133.800 189.987 C 132.040 189.296,130.240 188.585,129.800 188.407 C 129.360 188.228,128.010 187.684,126.800 187.196 C 124.755 186.372,123.107 185.670,119.600 184.126 C 92.746 172.304,77.480 156.543,71.628 134.600 C 69.641 127.152,69.637 112.068,71.619 105.300 C 71.829 104.585,72.196 103.325,72.436 102.500 C 73.046 100.400,75.912 94.454,77.051 92.927 C 77.573 92.226,78.000 91.540,78.000 91.402 C 78.000 91.264,78.315 90.726,78.700 90.207 C 79.930 88.548,80.180 89.731,79.477 93.889 M321.775 92.545 C 322.999 94.384,324.000 95.999,324.000 96.134 C 324.000 96.268,324.429 97.328,324.954 98.489 C 329.080 107.620,330.163 125.117,327.238 135.400 C 326.988 136.280,326.587 137.720,326.346 138.600 C 325.903 140.222,325.783 140.547,324.579 143.400 C 322.913 147.345,319.358 153.914,318.410 154.800 C 318.292 154.910,317.399 156.080,316.425 157.400 C 313.340 161.581,302.246 172.000,300.878 172.000 C 300.683 172.000,300.181 172.379,299.762 172.843 C 299.343 173.306,298.301 174.071,297.446 174.543 C 295.211 175.776,294.555 176.175,293.943 176.674 C 293.188 177.289,289.073 179.558,287.200 180.392 C 286.870 180.539,286.060 180.953,285.400 181.311 C 283.801 182.181,276.626 185.458,274.200 186.426 C 273.760 186.602,272.680 187.046,271.800 187.414 C 270.920 187.781,269.840 188.222,269.400 188.393 C 266.324 189.590,264.846 190.171,263.800 190.594 C 263.140 190.861,261.970 191.305,261.200 191.580 C 260.430 191.856,259.440 192.230,259.000 192.413 C 256.003 193.659,255.247 193.961,254.000 194.413 C 253.230 194.692,252.060 195.140,251.400 195.409 C 250.740 195.678,247.860 196.849,245.000 198.011 C 229.274 204.398,222.894 208.437,213.045 218.237 C 211.520 219.754,210.026 220.800,209.384 220.800 C 209.237 220.800,209.206 220.125,209.317 219.300 C 210.592 209.793,220.079 197.426,231.600 190.254 C 235.777 187.654,242.147 184.522,249.600 181.405 C 251.030 180.807,253.010 179.966,254.000 179.537 C 254.990 179.108,256.160 178.604,256.600 178.419 C 263.516 175.502,277.189 168.861,282.200 165.985 C 283.740 165.101,285.360 164.199,285.800 163.980 C 286.240 163.762,288.148 162.552,290.039 161.291 C 291.931 160.031,294.271 158.478,295.239 157.840 C 296.208 157.202,297.090 156.571,297.200 156.438 C 297.310 156.305,298.120 155.667,299.000 155.020 C 301.418 153.244,308.414 146.231,310.000 143.993 C 310.770 142.907,311.535 142.014,311.700 142.009 C 311.865 142.004,312.000 141.811,312.000 141.581 C 312.000 141.350,312.657 140.135,313.459 138.881 C 320.457 127.943,322.418 115.183,319.988 96.400 C 318.873 87.783,318.764 88.019,321.775 92.545 M342.257 116.645 C 342.521 117.153,343.000 118.071,343.321 118.685 C 352.573 136.332,350.381 162.709,338.118 181.302 C 329.856 193.830,314.935 205.122,297.000 212.420 C 296.560 212.599,295.570 213.011,294.800 213.334 C 293.351 213.943,289.282 215.422,285.800 216.605 C 284.700 216.979,283.440 217.423,283.000 217.593 C 282.560 217.763,280.580 218.393,278.600 218.994 C 276.620 219.595,274.640 220.221,274.200 220.387 C 273.760 220.553,272.320 221.008,271.000 221.399 C 269.680 221.790,267.340 222.510,265.800 223.000 C 264.260 223.489,261.920 224.199,260.600 224.576 C 259.280 224.953,257.840 225.405,257.400 225.581 C 256.960 225.757,254.980 226.393,253.000 226.994 C 251.020 227.595,249.040 228.232,248.600 228.410 C 248.160 228.588,246.360 229.223,244.600 229.820 C 241.183 230.979,236.061 232.952,234.903 233.556 C 234.516 233.757,233.030 234.478,231.600 235.157 C 230.170 235.837,227.830 237.110,226.400 237.986 C 224.970 238.862,223.440 239.752,223.000 239.962 C 222.560 240.173,220.912 241.393,219.338 242.673 C 209.124 250.978,209.200 250.932,209.200 248.795 C 209.200 248.132,209.358 247.277,209.551 246.895 C 209.745 246.513,210.687 244.535,211.647 242.500 C 212.606 240.465,213.528 238.800,213.695 238.800 C 213.863 238.800,214.000 238.610,214.000 238.379 C 214.000 234.813,229.250 221.333,237.600 217.517 C 238.590 217.064,240.551 216.168,241.958 215.525 C 244.477 214.374,245.440 213.994,249.400 212.591 C 250.500 212.201,251.760 211.731,252.200 211.547 C 252.640 211.362,255.430 210.411,258.400 209.432 C 261.370 208.454,265.870 206.903,268.400 205.986 C 270.930 205.069,273.360 204.221,273.800 204.101 C 274.240 203.982,274.780 203.761,275.000 203.611 C 275.220 203.461,276.300 203.020,277.400 202.631 C 278.500 202.243,279.967 201.672,280.660 201.362 C 281.354 201.053,282.023 200.800,282.149 200.800 C 282.274 200.800,283.417 200.340,284.688 199.777 C 285.960 199.215,287.360 198.603,287.800 198.418 C 290.960 197.089,292.457 196.386,297.600 193.818 C 304.495 190.374,305.295 189.929,311.000 186.371 C 315.358 183.653,316.029 183.151,321.236 178.717 C 327.176 173.659,333.713 164.543,336.378 157.600 C 336.842 156.390,337.379 155.040,337.571 154.600 C 337.763 154.160,338.193 152.810,338.526 151.600 C 338.859 150.390,339.256 148.950,339.407 148.400 C 341.088 142.281,341.606 127.916,340.540 117.005 C 340.250 114.040,340.841 113.916,342.257 116.645 M58.380 118.400 C 56.986 132.766,58.618 148.476,62.390 157.000 C 66.191 165.589,70.872 172.444,76.276 177.335 C 77.209 178.180,78.563 179.403,79.286 180.055 C 80.850 181.464,87.096 186.000,87.473 186.000 C 87.618 186.000,88.021 186.256,88.369 186.568 C 89.290 187.397,96.302 191.358,101.200 193.816 C 104.151 195.297,109.977 198.000,110.218 198.000 C 110.306 198.000,111.328 198.426,112.489 198.948 C 114.454 199.829,116.042 200.468,122.500 202.968 C 128.696 205.367,133.158 206.957,140.600 209.416 C 145.000 210.870,149.140 212.289,149.800 212.570 C 150.460 212.850,151.630 213.305,152.400 213.580 C 154.318 214.266,154.824 214.486,159.400 216.617 C 173.559 223.214,183.569 233.045,188.900 245.588 C 191.301 251.239,188.719 251.118,182.908 245.308 C 179.235 241.636,168.895 235.433,161.400 232.405 C 160.960 232.227,159.943 231.793,159.140 231.441 C 158.336 231.088,157.402 230.800,157.063 230.800 C 156.724 230.800,156.336 230.620,156.200 230.400 C 156.064 230.180,155.549 230.000,155.056 230.000 C 154.563 230.000,153.989 229.843,153.780 229.651 C 153.571 229.460,152.320 228.989,151.000 228.605 C 149.680 228.221,148.033 227.658,147.340 227.354 C 146.646 227.049,145.864 226.800,145.602 226.800 C 145.339 226.800,143.296 226.196,141.062 225.458 C 137.271 224.206,135.679 223.712,126.500 220.945 C 122.545 219.752,119.777 218.862,118.600 218.404 C 118.160 218.233,116.720 217.765,115.400 217.364 C 114.080 216.964,112.829 216.493,112.620 216.318 C 112.411 216.143,111.862 216.000,111.400 216.000 C 110.938 216.000,110.389 215.850,110.180 215.666 C 109.971 215.482,108.900 215.015,107.800 214.628 C 106.700 214.241,105.260 213.692,104.600 213.408 C 103.940 213.124,102.691 212.646,101.825 212.346 C 100.958 212.046,97.448 210.381,94.025 208.648 C 90.601 206.914,87.396 205.294,86.903 205.048 C 86.410 204.801,86.005 204.465,86.003 204.300 C 86.001 204.135,85.828 204.000,85.618 204.000 C 85.304 204.000,81.761 201.717,80.200 200.510 C 79.980 200.339,78.720 199.397,77.400 198.415 C 68.299 191.645,60.998 182.845,56.516 173.242 C 55.530 171.129,54.560 169.087,54.361 168.705 C 54.163 168.323,54.000 167.678,54.000 167.272 C 54.000 166.866,53.868 166.401,53.707 166.240 C 52.361 164.895,50.464 153.859,50.133 145.458 C 49.814 137.335,50.349 133.197,52.674 125.800 C 53.996 121.594,58.024 114.221,58.626 114.904 C 58.673 114.957,58.562 116.530,58.380 118.400 M127.437 235.800 C 128.640 236.350,129.698 236.800,129.789 236.800 C 129.879 236.800,131.539 237.536,133.477 238.435 C 135.415 239.334,137.360 240.222,137.800 240.407 C 139.494 241.120,144.276 243.295,145.882 244.082 C 147.443 244.848,154.000 254.162,154.000 255.614 C 154.000 255.826,154.138 256.000,154.308 256.000 C 154.477 256.000,155.203 257.035,155.920 258.300 C 157.631 261.315,158.024 261.953,159.099 263.473 C 159.595 264.174,160.000 264.877,160.000 265.036 C 160.000 265.194,160.410 265.881,160.911 266.562 C 161.411 267.243,162.172 268.475,162.601 269.300 C 163.031 270.125,163.521 270.800,163.691 270.800 C 163.861 270.800,164.000 271.008,164.000 271.262 C 164.000 271.516,164.450 272.314,165.000 273.036 C 165.550 273.757,166.000 274.477,166.000 274.636 C 166.000 274.794,166.450 275.514,167.000 276.236 C 167.550 276.957,168.000 277.650,168.000 277.776 C 168.000 277.903,169.350 280.163,171.000 282.800 C 172.650 285.437,174.000 287.713,174.000 287.859 C 174.000 288.005,174.450 288.714,175.000 289.436 C 175.550 290.157,176.000 290.877,176.000 291.036 C 176.000 291.194,176.450 291.914,177.000 292.636 C 177.550 293.357,178.000 294.052,178.000 294.181 C 178.000 294.310,179.503 296.820,181.339 299.760 C 183.175 302.700,184.797 305.352,184.943 305.653 C 185.089 305.954,185.522 306.665,185.904 307.234 C 186.287 307.802,187.193 309.242,187.918 310.434 C 193.339 319.343,197.408 325.841,197.856 326.300 C 198.698 327.165,199.923 326.848,200.945 325.500 C 201.951 324.173,210.000 311.259,210.000 310.972 C 210.000 310.885,212.275 307.166,215.056 302.707 C 221.597 292.220,221.546 292.303,221.867 291.600 C 222.018 291.270,222.559 290.443,223.071 289.762 C 223.582 289.081,224.000 288.420,224.000 288.293 C 224.000 288.166,226.205 284.490,228.900 280.125 C 231.595 275.760,234.160 271.504,234.600 270.667 C 235.040 269.831,235.670 268.833,236.000 268.451 C 236.330 268.069,236.819 267.406,237.086 266.978 C 237.755 265.907,241.172 260.337,241.612 259.600 C 247.923 249.043,251.311 244.000,252.094 244.000 C 252.290 244.000,253.473 243.532,254.725 242.961 C 255.976 242.389,257.540 241.685,258.200 241.395 C 258.860 241.106,260.480 240.393,261.800 239.812 C 263.120 239.230,264.560 238.604,265.000 238.420 C 266.151 237.939,270.377 236.001,271.893 235.259 C 274.378 234.042,274.045 235.209,270.194 241.200 C 268.144 244.390,266.213 247.450,265.904 248.000 C 265.595 248.550,263.375 252.128,260.971 255.951 C 258.567 259.774,256.240 263.489,255.800 264.206 C 253.527 267.909,252.038 270.289,250.500 272.678 C 249.565 274.130,248.800 275.472,248.800 275.659 C 248.800 275.847,248.620 276.000,248.400 276.000 C 248.180 276.000,248.000 276.192,248.000 276.427 C 248.000 276.661,247.550 277.443,247.000 278.164 C 246.450 278.886,246.000 279.606,246.000 279.764 C 246.000 279.923,245.595 280.626,245.099 281.327 C 244.603 282.027,243.982 282.960,243.717 283.400 C 243.207 284.247,240.874 288.074,240.200 289.168 C 239.980 289.525,239.395 290.381,238.900 291.070 C 238.405 291.759,238.000 292.443,238.000 292.588 C 238.000 292.734,237.550 293.443,237.000 294.164 C 236.450 294.886,236.000 295.590,236.000 295.731 C 236.000 295.871,233.750 299.600,231.000 304.016 C 228.250 308.432,226.000 312.137,226.000 312.249 C 226.000 312.362,225.550 313.043,225.000 313.764 C 224.450 314.486,224.000 315.206,224.000 315.364 C 224.000 315.523,223.550 316.243,223.000 316.964 C 222.450 317.686,222.000 318.381,222.000 318.510 C 222.000 318.638,219.300 323.089,216.000 328.400 C 212.700 333.711,210.000 338.202,210.000 338.379 C 210.000 338.557,209.747 338.912,209.437 339.169 C 209.127 339.426,208.582 340.214,208.226 340.918 C 207.869 341.623,207.406 342.470,207.196 342.800 C 204.776 346.607,202.000 351.237,202.000 351.467 C 202.000 352.020,199.847 354.000,199.244 354.000 C 198.615 354.000,196.000 351.683,196.000 351.126 C 196.000 350.951,194.650 348.633,193.000 345.974 C 191.350 343.315,190.000 341.078,190.000 341.002 C 190.000 340.854,187.708 337.117,182.942 329.495 C 181.324 326.907,180.000 324.612,180.000 324.395 C 180.000 324.178,179.861 324.000,179.691 324.000 C 179.521 324.000,179.028 323.325,178.595 322.500 C 178.162 321.675,177.693 320.910,177.554 320.800 C 177.414 320.690,176.958 319.970,176.540 319.200 C 176.122 318.430,175.499 317.350,175.155 316.800 C 169.109 307.139,164.000 298.710,164.000 298.398 C 164.000 298.179,163.841 298.000,163.647 298.000 C 163.452 298.000,163.179 297.685,163.040 297.300 C 162.737 296.460,162.111 295.416,160.900 293.730 C 160.405 293.041,160.000 292.352,160.000 292.200 C 160.000 292.048,159.595 291.359,159.100 290.670 C 158.605 289.981,158.020 289.099,157.800 288.711 C 156.570 286.541,153.843 282.171,153.612 282.000 C 153.463 281.890,153.213 281.530,153.055 281.200 C 152.612 280.273,151.886 279.103,150.900 277.730 C 150.405 277.041,150.000 276.357,150.000 276.212 C 150.000 276.066,149.595 275.374,149.099 274.673 C 148.603 273.973,147.987 273.040,147.728 272.600 C 145.787 269.294,143.837 266.167,143.612 266.000 C 143.463 265.890,143.213 265.530,143.055 265.200 C 142.612 264.273,141.886 263.103,140.900 261.730 C 140.405 261.041,140.000 260.357,140.000 260.212 C 140.000 260.066,139.595 259.374,139.099 258.673 C 138.603 257.973,137.982 257.040,137.717 256.600 C 135.097 252.242,134.348 251.054,131.900 247.366 C 130.855 245.791,130.000 244.378,130.000 244.225 C 130.000 244.072,129.550 243.357,129.000 242.636 C 128.450 241.914,128.000 241.214,128.000 241.080 C 128.000 240.946,127.280 239.808,126.400 238.551 C 123.866 234.934,124.112 234.279,127.437 235.800 " stroke="none" fill="#3f028a" fill-rule="evenodd"></path></g></svg>